<?xml version="1.0" standalone="no"?>
<!DOCTYPE svg PUBLIC "-//W3C//DTD SVG 20010904//EN"
 "http://www.w3.org/TR/2001/REC-SVG-20010904/DTD/svg10.dtd">
<svg version="1.0" xmlns="http://www.w3.org/2000/svg"
 width="1024.000000pt" height="1024.000000pt" viewBox="0 0 1024.000000 1024.000000"
 preserveAspectRatio="xMidYMid meet">

<g transform="translate(0.000000,1024.000000) scale(0.100000,-0.100000)"
fill="#000000" stroke="none">
<path d="M4900 9934 c-19 -2 -78 -9 -130 -15 -420 -48 -843 -206 -1215 -454
-1072 -714 -1492 -2063 -1019 -3273 77 -197 225 -464 336 -604 l29 -37 604 -1
603 0 6 82 c3 46 10 349 16 673 5 325 13 681 16 791 l7 202 -39 12 c-90 29
-180 85 -254 160 -87 86 -132 164 -160 276 -19 73 -20 113 -20 758 0 656 1
682 19 710 26 39 57 55 109 56 35 0 49 -6 80 -34 l37 -34 3 -626 2 -626 130 0
130 0 0 605 c0 657 -1 649 55 693 33 26 92 29 135 7 62 -32 60 -14 60 -690 l0
-615 130 0 130 0 0 600 c0 528 2 604 16 640 22 54 60 80 119 80 40 0 52 -5 80
-33 24 -24 35 -46 40 -78 3 -24 5 -341 3 -704 l-3 -660 -27 -81 c-34 -99 -87
-183 -163 -257 -56 -54 -168 -121 -246 -146 -35 -11 -36 -12 -32 -59 1 -26 12
-387 23 -802 11 -415 21 -786 23 -825 l2 -70 680 0 680 0 6 190 c4 105 10 337
14 516 l8 326 -39 6 c-128 21 -261 147 -306 290 -17 54 -18 106 -18 656 0 616
5 712 45 901 53 252 156 478 300 657 110 137 186 188 267 181 60 -6 93 -35
102 -87 3 -21 7 -589 8 -1262 2 -673 4 -1484 6 -1802 l2 -577 531 1 531 1 83
127 c304 461 458 970 457 1516 0 549 -151 1060 -440 1495 -122 182 -203 282
-352 430 -438 438 -962 700 -1595 796 -95 15 -524 27 -605 18z m-1906 -2548
c132 -55 95 -246 -49 -246 -142 0 -181 189 -51 246 40 17 59 17 100 0z m4351
0 c44 -19 75 -69 75 -123 0 -79 -79 -140 -159 -122 -114 25 -134 185 -30 241
41 22 68 23 114 4z"/>
<path d="M3903 4940 c-128 -34 -221 -97 -296 -202 -111 -156 -154 -375 -135
-688 20 -340 154 -547 405 -626 70 -22 217 -29 299 -15 112 20 225 79 304 159
115 118 150 223 150 455 0 154 -9 186 -58 206 -20 9 -97 11 -260 9 l-232 -3
-27 -28 c-25 -25 -28 -34 -28 -97 0 -59 4 -73 23 -92 21 -21 33 -23 170 -28
l147 -5 -3 -50 c-13 -191 -197 -323 -377 -270 -46 13 -70 28 -115 73 -99 99
-126 212 -117 487 7 218 31 304 105 387 69 76 179 107 284 78 51 -15 139 -97
167 -158 27 -58 51 -72 124 -72 70 0 138 34 149 74 19 74 -43 200 -141 289
-133 119 -350 166 -538 117z"/>
<path d="M1357 4930 c-21 -4 -49 -18 -62 -31 -17 -18 -82 -201 -238 -679 -119
-360 -220 -671 -225 -690 -19 -74 17 -110 111 -110 70 0 123 16 142 43 9 12
36 86 61 165 l45 142 244 0 243 0 52 -155 c64 -191 67 -195 187 -195 76 0 86
2 108 25 14 13 25 30 25 37 0 12 -413 1260 -452 1366 -13 35 -28 57 -46 66
-33 17 -144 26 -195 16z m160 -928 c-48 -1 -126 -1 -171 0 l-84 3 79 250 c43
138 82 257 85 265 4 8 45 -102 93 -250 l87 -265 -89 -3z"/>
<path d="M4853 4925 c-19 -8 -35 -23 -38 -37 -3 -13 -5 -267 -3 -563 4 -529 4
-541 26 -599 60 -159 170 -262 337 -312 81 -24 247 -24 330 0 184 54 316 194
360 378 12 51 15 159 15 574 0 616 13 564 -138 564 -101 -1 -119 -7 -140 -47
-9 -16 -12 -161 -12 -522 0 -481 -1 -502 -21 -555 -37 -99 -125 -156 -240
-156 -97 1 -167 49 -211 145 -23 50 -23 51 -26 560 -1 281 -5 520 -7 533 -4
14 -19 29 -40 38 -43 18 -150 18 -192 -1z"/>
<path d="M7513 4929 c-17 -5 -41 -21 -52 -35 -17 -21 -423 -1229 -460 -1367
-19 -74 19 -107 126 -107 68 0 119 21 135 56 7 15 31 86 53 158 l41 131 248 0
249 0 38 -115 c78 -232 76 -230 206 -230 89 0 123 16 123 55 0 25 -449 1376
-470 1416 -7 11 -27 27 -45 35 -38 16 -143 17 -192 3z m263 -911 c5 -17 -8
-18 -171 -18 -138 0 -176 3 -172 13 2 6 37 115 76 240 40 125 77 240 83 255 9
24 18 4 94 -223 46 -137 87 -258 90 -267z"/>
<path d="M2215 4908 c-19 -17 -26 -34 -28 -63 -1 -22 0 -338 1 -702 l2 -662
24 -28 c21 -24 32 -28 95 -31 87 -5 117 2 133 31 10 16 14 133 18 472 l5 450
253 -445 c140 -245 267 -457 283 -472 28 -27 34 -28 125 -28 107 0 128 7 141
47 5 16 7 321 3 721 l-5 694 -24 19 c-19 15 -39 19 -108 19 -81 0 -86 -1 -115
-30 l-30 -31 6 -212 c15 -542 18 -717 10 -717 -8 0 -136 223 -442 769 -51 91
-107 178 -123 194 -27 25 -35 27 -114 27 -73 0 -87 -3 -110 -22z"/>
<path d="M6116 4899 l-26 -31 0 -693 0 -694 24 -28 24 -28 352 0 352 0 19 24
c15 18 19 39 19 101 0 73 -2 80 -26 99 -25 20 -39 21 -255 21 l-229 0 0 596
c0 433 -3 601 -12 617 -21 39 -40 46 -130 47 -84 0 -87 -1 -112 -31z"/>
<path d="M8385 4905 l-25 -24 0 -706 0 -706 25 -24 c21 -22 33 -25 100 -25 77
0 110 10 132 39 9 12 12 85 13 264 l0 247 83 0 82 -1 110 -210 c177 -340 179
-342 323 -337 74 3 86 6 103 27 10 13 19 33 19 45 0 11 -61 133 -135 271
l-134 249 51 25 c145 69 219 224 204 431 -14 197 -86 328 -223 402 -90 50
-152 58 -441 58 l-263 0 -24 -25z m532 -227 c61 -15 116 -70 131 -131 28 -111
7 -233 -51 -295 -43 -46 -67 -52 -222 -52 l-145 0 0 245 0 245 121 0 c66 0
141 -5 166 -12z"/>
<path d="M5095 3040 c-265 -48 -439 -212 -465 -440 -24 -210 58 -378 237 -483
34 -20 142 -68 239 -107 292 -117 369 -183 369 -316 0 -50 -5 -69 -28 -103
-97 -146 -355 -160 -489 -26 -21 20 -50 59 -64 86 -35 62 -67 75 -156 59 -125
-23 -175 -64 -164 -133 19 -116 144 -265 276 -329 124 -61 184 -73 360 -72
142 0 162 2 236 27 153 51 264 151 336 302 32 69 33 72 33 211 l0 140 -38 76
c-67 136 -182 217 -464 325 -91 35 -188 78 -217 97 -94 60 -132 127 -124 217
11 107 102 179 228 179 123 0 203 -45 264 -150 37 -63 64 -74 156 -64 135 14
176 46 166 129 -24 207 -252 369 -535 380 -58 2 -128 0 -156 -5z"/>
<path d="M1786 2979 c-24 -28 -26 -39 -26 -115 0 -157 17 -166 288 -163 l177
2 0 -719 c0 -545 3 -724 12 -740 21 -36 63 -46 172 -42 89 3 103 6 123 26 l23
23 3 727 2 727 188 0 c103 0 199 3 214 8 42 11 58 53 58 147 0 84 -15 132 -45
144 -9 3 -275 6 -590 6 l-573 0 -26 -31z"/>
<path d="M3550 2988 c-35 -23 -38 -33 -312 -848 -152 -454 -277 -841 -277
-861 -1 -58 33 -83 125 -87 170 -9 186 5 260 234 l57 174 305 -2 305 -3 56
-165 c31 -91 61 -175 68 -186 19 -34 74 -54 145 -54 111 0 168 29 168 85 0 27
-523 1603 -549 1653 -37 72 -48 77 -190 80 -118 3 -128 2 -161 -20z m203 -580
c25 -79 72 -222 103 -318 31 -96 59 -181 61 -187 4 -10 -42 -13 -212 -13 -170
0 -216 3 -212 13 2 6 49 155 103 330 54 174 101 317 104 317 4 0 27 -64 53
-142z"/>
<path d="M5965 2985 c-23 -22 -25 -31 -25 -124 0 -91 2 -102 24 -128 l24 -28
206 0 206 0 0 -723 0 -724 29 -29 c29 -28 32 -29 136 -29 104 0 107 1 136 29
l29 29 0 726 0 726 205 0 c205 0 206 0 230 25 23 22 25 31 25 125 0 94 -2 103
-25 125 l-24 25 -576 0 -576 0 -24 -25z"/>
<path d="M7403 2995 c-13 -9 -27 -33 -33 -54 -13 -50 -12 -1620 1 -1673 18
-69 13 -68 513 -68 259 0 455 4 470 10 43 16 58 61 54 162 -3 84 -5 91 -31
114 l-28 24 -325 0 -324 0 0 230 0 229 280 3 c341 4 323 -4 328 141 7 178 4
179 -349 175 l-259 -3 0 213 0 212 328 0 329 0 21 23 c20 21 22 34 22 128 0
163 49 149 -511 149 -402 0 -468 -2 -486 -15z"/>
</g>
</svg>
